G04 (created by PCBNEW (2013-07-07 BZR 4022)-stable) date 11/4/2013 11:48:53 PM*
%MOIN*%
G04 Gerber Fmt 3.4, Leading zero omitted, Abs format*
%FSLAX34Y34*%
G01*
G70*
G90*
G04 APERTURE LIST*
%ADD10C,0.00590551*%
%ADD11C,0.00984252*%
%ADD12C,0.011811*%
%ADD13C,0.012*%
%ADD14C,0.015*%
%ADD15C,0.008*%
G04 APERTURE END LIST*
G54D10*
G54D11*
X87659Y-58730D02*
X87265Y-58730D01*
X87546Y-58599D01*
X87265Y-58468D01*
X87659Y-58468D01*
X87659Y-58112D02*
X87453Y-58112D01*
X87415Y-58131D01*
X87396Y-58168D01*
X87396Y-58243D01*
X87415Y-58281D01*
X87640Y-58112D02*
X87659Y-58149D01*
X87659Y-58243D01*
X87640Y-58281D01*
X87603Y-58299D01*
X87565Y-58299D01*
X87528Y-58281D01*
X87509Y-58243D01*
X87509Y-58149D01*
X87490Y-58112D01*
X87396Y-57981D02*
X87396Y-57831D01*
X87265Y-57924D02*
X87603Y-57924D01*
X87640Y-57906D01*
X87659Y-57868D01*
X87659Y-57831D01*
X87396Y-57756D02*
X87396Y-57606D01*
X87265Y-57699D02*
X87603Y-57699D01*
X87640Y-57681D01*
X87659Y-57643D01*
X87659Y-57606D01*
X87659Y-57474D02*
X87265Y-57474D01*
X87659Y-57306D02*
X87453Y-57306D01*
X87415Y-57324D01*
X87396Y-57362D01*
X87396Y-57418D01*
X87415Y-57456D01*
X87434Y-57474D01*
X87640Y-56968D02*
X87659Y-57006D01*
X87659Y-57081D01*
X87640Y-57118D01*
X87603Y-57137D01*
X87453Y-57137D01*
X87415Y-57118D01*
X87396Y-57081D01*
X87396Y-57006D01*
X87415Y-56968D01*
X87453Y-56949D01*
X87490Y-56949D01*
X87528Y-57137D01*
X87396Y-56818D02*
X87659Y-56743D01*
X87471Y-56668D01*
X87659Y-56593D01*
X87396Y-56518D01*
X87659Y-56068D02*
X87265Y-56068D01*
X87659Y-55843D01*
X87265Y-55843D01*
X87640Y-55506D02*
X87659Y-55543D01*
X87659Y-55618D01*
X87640Y-55656D01*
X87603Y-55675D01*
X87453Y-55675D01*
X87415Y-55656D01*
X87396Y-55618D01*
X87396Y-55543D01*
X87415Y-55506D01*
X87453Y-55487D01*
X87490Y-55487D01*
X87528Y-55675D01*
X87659Y-55262D02*
X87640Y-55300D01*
X87603Y-55318D01*
X87265Y-55318D01*
X87640Y-55131D02*
X87659Y-55093D01*
X87659Y-55018D01*
X87640Y-54981D01*
X87603Y-54962D01*
X87584Y-54962D01*
X87546Y-54981D01*
X87528Y-55018D01*
X87528Y-55075D01*
X87509Y-55112D01*
X87471Y-55131D01*
X87453Y-55131D01*
X87415Y-55112D01*
X87396Y-55075D01*
X87396Y-55018D01*
X87415Y-54981D01*
X87659Y-54737D02*
X87640Y-54775D01*
X87621Y-54793D01*
X87584Y-54812D01*
X87471Y-54812D01*
X87434Y-54793D01*
X87415Y-54775D01*
X87396Y-54737D01*
X87396Y-54681D01*
X87415Y-54643D01*
X87434Y-54625D01*
X87471Y-54606D01*
X87584Y-54606D01*
X87621Y-54625D01*
X87640Y-54643D01*
X87659Y-54681D01*
X87659Y-54737D01*
X87396Y-54437D02*
X87659Y-54437D01*
X87434Y-54437D02*
X87415Y-54419D01*
X87396Y-54381D01*
X87396Y-54325D01*
X87415Y-54287D01*
X87453Y-54269D01*
X87659Y-54269D01*
X87952Y-57174D02*
X87934Y-57156D01*
X87915Y-57118D01*
X87915Y-57024D01*
X87934Y-56987D01*
X87952Y-56968D01*
X87990Y-56949D01*
X88027Y-56949D01*
X88083Y-56968D01*
X88308Y-57193D01*
X88308Y-56949D01*
X87915Y-56706D02*
X87915Y-56668D01*
X87934Y-56631D01*
X87952Y-56612D01*
X87990Y-56593D01*
X88065Y-56574D01*
X88158Y-56574D01*
X88233Y-56593D01*
X88271Y-56612D01*
X88290Y-56631D01*
X88308Y-56668D01*
X88308Y-56706D01*
X88290Y-56743D01*
X88271Y-56762D01*
X88233Y-56781D01*
X88158Y-56799D01*
X88065Y-56799D01*
X87990Y-56781D01*
X87952Y-56762D01*
X87934Y-56743D01*
X87915Y-56706D01*
X88308Y-56200D02*
X88308Y-56425D01*
X88308Y-56312D02*
X87915Y-56312D01*
X87971Y-56350D01*
X88008Y-56387D01*
X88027Y-56425D01*
X87915Y-56068D02*
X87915Y-55825D01*
X88065Y-55956D01*
X88065Y-55900D01*
X88083Y-55862D01*
X88102Y-55843D01*
X88140Y-55825D01*
X88233Y-55825D01*
X88271Y-55843D01*
X88290Y-55862D01*
X88308Y-55900D01*
X88308Y-56012D01*
X88290Y-56050D01*
X88271Y-56068D01*
G54D12*
X78717Y-58648D02*
X79055Y-58648D01*
X78886Y-59239D02*
X78886Y-58648D01*
X79476Y-59210D02*
X79420Y-59239D01*
X79308Y-59239D01*
X79251Y-59210D01*
X79223Y-59154D01*
X79223Y-58929D01*
X79251Y-58873D01*
X79308Y-58845D01*
X79420Y-58845D01*
X79476Y-58873D01*
X79505Y-58929D01*
X79505Y-58985D01*
X79223Y-59042D01*
X79758Y-59239D02*
X79758Y-58845D01*
X79758Y-58901D02*
X79786Y-58873D01*
X79842Y-58845D01*
X79926Y-58845D01*
X79983Y-58873D01*
X80011Y-58929D01*
X80011Y-59239D01*
X80011Y-58929D02*
X80039Y-58873D01*
X80095Y-58845D01*
X80179Y-58845D01*
X80236Y-58873D01*
X80264Y-58929D01*
X80264Y-59239D01*
X80545Y-58845D02*
X80545Y-59435D01*
X80545Y-58873D02*
X80601Y-58845D01*
X80714Y-58845D01*
X80770Y-58873D01*
X80798Y-58901D01*
X80826Y-58957D01*
X80826Y-59126D01*
X80798Y-59182D01*
X80770Y-59210D01*
X80714Y-59239D01*
X80601Y-59239D01*
X80545Y-59210D01*
X81529Y-59239D02*
X81529Y-58648D01*
X81754Y-58648D01*
X81811Y-58676D01*
X81839Y-58704D01*
X81867Y-58760D01*
X81867Y-58845D01*
X81839Y-58901D01*
X81811Y-58929D01*
X81754Y-58957D01*
X81529Y-58957D01*
X82345Y-59210D02*
X82289Y-59239D01*
X82176Y-59239D01*
X82120Y-59210D01*
X82092Y-59154D01*
X82092Y-58929D01*
X82120Y-58873D01*
X82176Y-58845D01*
X82289Y-58845D01*
X82345Y-58873D01*
X82373Y-58929D01*
X82373Y-58985D01*
X82092Y-59042D01*
X82626Y-58845D02*
X82626Y-59239D01*
X82626Y-58901D02*
X82654Y-58873D01*
X82710Y-58845D01*
X82795Y-58845D01*
X82851Y-58873D01*
X82879Y-58929D01*
X82879Y-59239D01*
X83413Y-59239D02*
X83413Y-58648D01*
X83413Y-59210D02*
X83357Y-59239D01*
X83245Y-59239D01*
X83188Y-59210D01*
X83160Y-59182D01*
X83132Y-59126D01*
X83132Y-58957D01*
X83160Y-58901D01*
X83188Y-58873D01*
X83245Y-58845D01*
X83357Y-58845D01*
X83413Y-58873D01*
X83948Y-59239D02*
X83948Y-58929D01*
X83920Y-58873D01*
X83863Y-58845D01*
X83751Y-58845D01*
X83695Y-58873D01*
X83948Y-59210D02*
X83892Y-59239D01*
X83751Y-59239D01*
X83695Y-59210D01*
X83667Y-59154D01*
X83667Y-59098D01*
X83695Y-59042D01*
X83751Y-59014D01*
X83892Y-59014D01*
X83948Y-58985D01*
X84229Y-58845D02*
X84229Y-59239D01*
X84229Y-58901D02*
X84257Y-58873D01*
X84313Y-58845D01*
X84398Y-58845D01*
X84454Y-58873D01*
X84482Y-58929D01*
X84482Y-59239D01*
X84679Y-58845D02*
X84904Y-58845D01*
X84763Y-58648D02*
X84763Y-59154D01*
X84791Y-59210D01*
X84848Y-59239D01*
X84904Y-59239D01*
X85551Y-59239D02*
X85551Y-58845D01*
X85551Y-58957D02*
X85579Y-58901D01*
X85607Y-58873D01*
X85663Y-58845D01*
X85719Y-58845D01*
X86226Y-59239D02*
X85888Y-59239D01*
X86057Y-59239D02*
X86057Y-58648D01*
X86001Y-58732D01*
X85944Y-58789D01*
X85888Y-58817D01*
G54D13*
X85500Y-58500D02*
X87000Y-57000D01*
X87000Y-57000D02*
X87000Y-56500D01*
X87000Y-56500D02*
X86500Y-56000D01*
X86500Y-56000D02*
X85500Y-56000D01*
X85500Y-56000D02*
X84500Y-57000D01*
X84500Y-57000D02*
X84500Y-58000D01*
X84500Y-58000D02*
X85000Y-58500D01*
X85000Y-58500D02*
X85500Y-58500D01*
G54D14*
X79000Y-53500D02*
X85000Y-53500D01*
X85000Y-52500D02*
X79000Y-52500D01*
X79000Y-52500D02*
X79000Y-53500D01*
X85000Y-53500D02*
X85000Y-52500D01*
G54D10*
X85023Y-49000D02*
X85023Y-53527D01*
X85023Y-53527D02*
X87976Y-53527D01*
X87976Y-53527D02*
X87976Y-49000D01*
X84417Y-54893D02*
X84417Y-53909D01*
X84417Y-53909D02*
X86582Y-53909D01*
X86582Y-53909D02*
X86582Y-54893D01*
X83744Y-53913D02*
X83744Y-58460D01*
X79255Y-53913D02*
X79255Y-58460D01*
X79255Y-53913D02*
X83744Y-53913D01*
X79255Y-58460D02*
X83744Y-58460D01*
X82657Y-56000D02*
G75*
G03X82657Y-56000I-1157J0D01*
G74*
G01*
G54D15*
X85195Y-58761D02*
X85195Y-59085D01*
X85214Y-59123D01*
X85233Y-59142D01*
X85271Y-59161D01*
X85347Y-59161D01*
X85385Y-59142D01*
X85404Y-59123D01*
X85423Y-59085D01*
X85423Y-58761D01*
X85595Y-58800D02*
X85614Y-58780D01*
X85652Y-58761D01*
X85747Y-58761D01*
X85785Y-58780D01*
X85804Y-58800D01*
X85823Y-58838D01*
X85823Y-58876D01*
X85804Y-58933D01*
X85576Y-59161D01*
X85823Y-59161D01*
X84576Y-55261D02*
X84804Y-55261D01*
X84690Y-55661D02*
X84690Y-55261D01*
X84938Y-55661D02*
X84938Y-55261D01*
X85071Y-55547D01*
X85204Y-55261D01*
X85204Y-55661D01*
X85395Y-55661D02*
X85395Y-55261D01*
X85547Y-55261D01*
X85585Y-55280D01*
X85604Y-55300D01*
X85623Y-55338D01*
X85623Y-55395D01*
X85604Y-55433D01*
X85585Y-55452D01*
X85547Y-55471D01*
X85395Y-55471D01*
X85757Y-55261D02*
X86004Y-55261D01*
X85871Y-55414D01*
X85928Y-55414D01*
X85966Y-55433D01*
X85985Y-55452D01*
X86004Y-55490D01*
X86004Y-55585D01*
X85985Y-55623D01*
X85966Y-55642D01*
X85928Y-55661D01*
X85814Y-55661D01*
X85776Y-55642D01*
X85757Y-55623D01*
X86138Y-55261D02*
X86404Y-55661D01*
X86404Y-55261D02*
X86138Y-55661D01*
G54D13*
X81800Y-51642D02*
X81800Y-52071D01*
X81771Y-52157D01*
X81714Y-52214D01*
X81628Y-52242D01*
X81571Y-52242D01*
X82400Y-52242D02*
X82057Y-52242D01*
X82228Y-52242D02*
X82228Y-51642D01*
X82171Y-51728D01*
X82114Y-51785D01*
X82057Y-51814D01*
G54D10*
X84681Y-52951D02*
X84700Y-52894D01*
X84718Y-52876D01*
X84756Y-52857D01*
X84812Y-52857D01*
X84850Y-52876D01*
X84868Y-52894D01*
X84887Y-52932D01*
X84887Y-53082D01*
X84494Y-53082D01*
X84494Y-52951D01*
X84512Y-52913D01*
X84531Y-52894D01*
X84568Y-52876D01*
X84606Y-52876D01*
X84643Y-52894D01*
X84662Y-52913D01*
X84681Y-52951D01*
X84681Y-53082D01*
X84494Y-52744D02*
X84494Y-52519D01*
X84887Y-52632D02*
X84494Y-52632D01*
X84887Y-52182D02*
X84887Y-52407D01*
X84887Y-52294D02*
X84494Y-52294D01*
X84550Y-52332D01*
X84587Y-52369D01*
X84606Y-52407D01*
X88323Y-53625D02*
X88341Y-53569D01*
X88360Y-53550D01*
X88398Y-53532D01*
X88454Y-53532D01*
X88491Y-53550D01*
X88510Y-53569D01*
X88529Y-53607D01*
X88529Y-53757D01*
X88135Y-53757D01*
X88135Y-53625D01*
X88154Y-53588D01*
X88173Y-53569D01*
X88210Y-53550D01*
X88248Y-53550D01*
X88285Y-53569D01*
X88304Y-53588D01*
X88323Y-53625D01*
X88323Y-53757D01*
X88416Y-53382D02*
X88416Y-53194D01*
X88529Y-53419D02*
X88135Y-53288D01*
X88529Y-53157D01*
X88135Y-53082D02*
X88135Y-52857D01*
X88529Y-52969D02*
X88135Y-52969D01*
X88135Y-52782D02*
X88135Y-52557D01*
X88529Y-52669D02*
X88135Y-52669D01*
X88323Y-52426D02*
X88323Y-52294D01*
X88529Y-52238D02*
X88529Y-52426D01*
X88135Y-52426D01*
X88135Y-52238D01*
X88529Y-51844D02*
X88341Y-51976D01*
X88529Y-52069D02*
X88135Y-52069D01*
X88135Y-51919D01*
X88154Y-51882D01*
X88173Y-51863D01*
X88210Y-51844D01*
X88266Y-51844D01*
X88304Y-51863D01*
X88323Y-51882D01*
X88341Y-51919D01*
X88341Y-52069D01*
X88341Y-51601D02*
X88529Y-51601D01*
X88135Y-51732D02*
X88341Y-51601D01*
X88135Y-51470D01*
X84975Y-53754D02*
X85031Y-53773D01*
X85125Y-53773D01*
X85162Y-53754D01*
X85181Y-53736D01*
X85200Y-53698D01*
X85200Y-53661D01*
X85181Y-53623D01*
X85162Y-53604D01*
X85125Y-53586D01*
X85050Y-53567D01*
X85012Y-53548D01*
X84993Y-53529D01*
X84975Y-53492D01*
X84975Y-53454D01*
X84993Y-53417D01*
X85012Y-53398D01*
X85050Y-53379D01*
X85143Y-53379D01*
X85200Y-53398D01*
X85331Y-53379D02*
X85425Y-53773D01*
X85500Y-53492D01*
X85574Y-53773D01*
X85668Y-53379D01*
X86024Y-53773D02*
X85799Y-53773D01*
X85912Y-53773D02*
X85912Y-53379D01*
X85874Y-53436D01*
X85837Y-53473D01*
X85799Y-53492D01*
X81200Y-56434D02*
X81200Y-56753D01*
X81218Y-56791D01*
X81237Y-56809D01*
X81275Y-56828D01*
X81350Y-56828D01*
X81387Y-56809D01*
X81406Y-56791D01*
X81425Y-56753D01*
X81425Y-56434D01*
X81818Y-56828D02*
X81593Y-56828D01*
X81706Y-56828D02*
X81706Y-56434D01*
X81668Y-56491D01*
X81631Y-56528D01*
X81593Y-56547D01*
X79690Y-54437D02*
X79747Y-54456D01*
X79765Y-54474D01*
X79784Y-54512D01*
X79784Y-54568D01*
X79765Y-54606D01*
X79747Y-54624D01*
X79709Y-54643D01*
X79559Y-54643D01*
X79559Y-54249D01*
X79690Y-54249D01*
X79728Y-54268D01*
X79747Y-54287D01*
X79765Y-54324D01*
X79765Y-54362D01*
X79747Y-54399D01*
X79728Y-54418D01*
X79690Y-54437D01*
X79559Y-54437D01*
X80140Y-54643D02*
X79953Y-54643D01*
X79953Y-54249D01*
X80272Y-54643D02*
X80272Y-54249D01*
X80459Y-54643D02*
X80459Y-54249D01*
X80684Y-54643D01*
X80684Y-54249D01*
X80871Y-54643D02*
X80871Y-54249D01*
X81096Y-54643D02*
X80928Y-54418D01*
X81096Y-54249D02*
X80871Y-54474D01*
X81265Y-54643D02*
X81265Y-54249D01*
X81396Y-54531D01*
X81528Y-54249D01*
X81528Y-54643D01*
X81996Y-54231D02*
X81659Y-54737D01*
X82128Y-54643D02*
X82128Y-54249D01*
X82259Y-54531D01*
X82390Y-54249D01*
X82390Y-54643D01*
X82577Y-54643D02*
X82577Y-54249D01*
X82765Y-54643D02*
X82765Y-54249D01*
X82990Y-54643D01*
X82990Y-54249D01*
X83177Y-54643D02*
X83177Y-54249D01*
X83309Y-54531D01*
X83440Y-54249D01*
X83440Y-54643D01*
M02*
