G04 (created by PCBNEW (2013-07-07 BZR 4022)-stable) date 10/27/2013 8:58:56 PM*
%MOIN*%
G04 Gerber Fmt 3.4, Leading zero omitted, Abs format*
%FSLAX34Y34*%
G01*
G70*
G90*
G04 APERTURE LIST*
%ADD10C,0.00590551*%
%ADD11R,0.055X0.055*%
%ADD12C,0.055*%
%ADD13C,0.075*%
%ADD14C,0.0511811*%
%ADD15R,0.0551181X0.0413386*%
%ADD16C,0.0472441*%
%ADD17C,0.01*%
G04 APERTURE END LIST*
G54D10*
G54D11*
X88000Y-57000D03*
G54D12*
X87000Y-57000D03*
X87000Y-58000D03*
G54D13*
X79500Y-51000D03*
X80500Y-51000D03*
X81500Y-51000D03*
X82492Y-51000D03*
X83496Y-51000D03*
X84500Y-51000D03*
G54D14*
X86507Y-50622D03*
X87492Y-50622D03*
G54D13*
X79480Y-58059D03*
X80480Y-58059D03*
X81480Y-58059D03*
X82472Y-58059D03*
X83476Y-58059D03*
X84480Y-58059D03*
G54D15*
X87708Y-52714D03*
X86291Y-52714D03*
X86291Y-53285D03*
X87708Y-53285D03*
G54D16*
X87000Y-52645D03*
X87000Y-53354D03*
G54D17*
X87708Y-53285D02*
X87708Y-53463D01*
X87708Y-53463D02*
X87708Y-53642D01*
X88134Y-52248D02*
X86507Y-50622D01*
X88134Y-53038D02*
X88134Y-52248D01*
X87708Y-53463D02*
X88134Y-53038D01*
X86291Y-53285D02*
X86291Y-53642D01*
X87620Y-53730D02*
X87620Y-53751D01*
X87708Y-53642D02*
X87620Y-53730D01*
X87620Y-56195D02*
X88000Y-56574D01*
X87620Y-53751D02*
X87620Y-56195D01*
X88000Y-57000D02*
X88000Y-56574D01*
X86291Y-53697D02*
X86291Y-53642D01*
X86346Y-53751D02*
X86291Y-53697D01*
X87620Y-53751D02*
X86346Y-53751D01*
X85019Y-54519D02*
X81500Y-51000D01*
X85842Y-53697D02*
X85019Y-54519D01*
X86291Y-53697D02*
X85842Y-53697D01*
X85019Y-54519D02*
X81480Y-58059D01*
X87604Y-52253D02*
X87708Y-52357D01*
X86395Y-52253D02*
X87604Y-52253D01*
X86291Y-52357D02*
X86395Y-52253D01*
X87708Y-52714D02*
X87708Y-52357D01*
X86291Y-52714D02*
X86291Y-52536D01*
X86291Y-52536D02*
X86291Y-52357D01*
X84028Y-52536D02*
X82492Y-51000D01*
X86291Y-52536D02*
X84028Y-52536D01*
X84535Y-57000D02*
X87000Y-57000D01*
X83476Y-58059D02*
X84535Y-57000D01*
M02*
