G04 (created by PCBNEW (2013-07-07 BZR 4022)-stable) date 10/27/2013 8:58:56 PM*
%MOIN*%
G04 Gerber Fmt 3.4, Leading zero omitted, Abs format*
%FSLAX34Y34*%
G01*
G70*
G90*
G04 APERTURE LIST*
%ADD10C,0.00590551*%
%ADD11R,0.055X0.055*%
%ADD12C,0.055*%
%ADD13C,0.075*%
%ADD14C,0.0511811*%
%ADD15C,0.0472441*%
%ADD16C,0.01*%
%ADD17C,0.00629921*%
G04 APERTURE END LIST*
G54D10*
G54D11*
X88000Y-57000D03*
G54D12*
X87000Y-57000D03*
X87000Y-58000D03*
G54D13*
X79500Y-51000D03*
X80500Y-51000D03*
X81500Y-51000D03*
X82492Y-51000D03*
X83496Y-51000D03*
X84500Y-51000D03*
G54D14*
X86507Y-50622D03*
X87492Y-50622D03*
G54D13*
X79480Y-58059D03*
X80480Y-58059D03*
X81480Y-58059D03*
X82472Y-58059D03*
X83476Y-58059D03*
X84480Y-58059D03*
G54D15*
X87000Y-52645D03*
X87000Y-53354D03*
G54D16*
X84500Y-58039D02*
X84500Y-51000D01*
X84480Y-58059D02*
X84500Y-58039D01*
X79500Y-58039D02*
X79500Y-51000D01*
X79480Y-58059D02*
X79500Y-58039D01*
X82492Y-58039D02*
X82492Y-51000D01*
X82472Y-58059D02*
X82492Y-58039D01*
X83476Y-51019D02*
X83476Y-58059D01*
X83496Y-51000D02*
X83476Y-51019D01*
G54D10*
G36*
X88468Y-58968D02*
X88406Y-58968D01*
X88406Y-57248D01*
X88406Y-56698D01*
X88386Y-56650D01*
X88349Y-56613D01*
X88301Y-56593D01*
X88248Y-56593D01*
X87726Y-56593D01*
X87726Y-50859D01*
X87492Y-50624D01*
X87257Y-50859D01*
X87283Y-50912D01*
X87410Y-50969D01*
X87549Y-50974D01*
X87680Y-50925D01*
X87700Y-50912D01*
X87726Y-50859D01*
X87726Y-56593D01*
X87698Y-56593D01*
X87650Y-56613D01*
X87613Y-56650D01*
X87593Y-56698D01*
X87593Y-56751D01*
X87593Y-57301D01*
X87613Y-57349D01*
X87650Y-57386D01*
X87698Y-57406D01*
X87751Y-57406D01*
X88301Y-57406D01*
X88349Y-57386D01*
X88386Y-57349D01*
X88406Y-57301D01*
X88406Y-57248D01*
X88406Y-58968D01*
X87406Y-58968D01*
X87406Y-56919D01*
X87367Y-56825D01*
X87367Y-53281D01*
X87311Y-53146D01*
X87208Y-53042D01*
X87105Y-52999D01*
X87208Y-52957D01*
X87311Y-52854D01*
X87367Y-52719D01*
X87367Y-52572D01*
X87311Y-52437D01*
X87208Y-52334D01*
X87073Y-52278D01*
X86927Y-52277D01*
X86791Y-52333D01*
X86688Y-52437D01*
X86632Y-52572D01*
X86632Y-52718D01*
X86688Y-52853D01*
X86791Y-52957D01*
X86894Y-53000D01*
X86791Y-53042D01*
X86688Y-53145D01*
X86632Y-53280D01*
X86632Y-53427D01*
X86688Y-53562D01*
X86791Y-53665D01*
X86926Y-53721D01*
X87072Y-53722D01*
X87208Y-53666D01*
X87311Y-53562D01*
X87367Y-53427D01*
X87367Y-53281D01*
X87367Y-56825D01*
X87344Y-56770D01*
X87230Y-56655D01*
X87081Y-56593D01*
X86919Y-56593D01*
X86770Y-56655D01*
X86655Y-56769D01*
X86593Y-56918D01*
X86593Y-57080D01*
X86655Y-57229D01*
X86769Y-57344D01*
X86918Y-57406D01*
X87080Y-57406D01*
X87229Y-57344D01*
X87344Y-57230D01*
X87406Y-57081D01*
X87406Y-56919D01*
X87406Y-58968D01*
X87371Y-58968D01*
X87371Y-57939D01*
X87320Y-57801D01*
X87305Y-57780D01*
X87251Y-57751D01*
X87248Y-57754D01*
X87248Y-57748D01*
X87219Y-57694D01*
X87086Y-57633D01*
X86939Y-57628D01*
X86801Y-57679D01*
X86780Y-57694D01*
X86751Y-57748D01*
X87000Y-57997D01*
X87248Y-57748D01*
X87248Y-57754D01*
X87002Y-58000D01*
X87251Y-58248D01*
X87305Y-58219D01*
X87366Y-58086D01*
X87371Y-57939D01*
X87371Y-58968D01*
X87248Y-58968D01*
X87248Y-58251D01*
X87000Y-58002D01*
X86997Y-58005D01*
X86997Y-58000D01*
X86748Y-57751D01*
X86694Y-57780D01*
X86633Y-57913D01*
X86628Y-58060D01*
X86679Y-58198D01*
X86694Y-58219D01*
X86748Y-58248D01*
X86997Y-58000D01*
X86997Y-58005D01*
X86751Y-58251D01*
X86780Y-58305D01*
X86913Y-58366D01*
X87060Y-58371D01*
X87198Y-58320D01*
X87219Y-58305D01*
X87248Y-58251D01*
X87248Y-58968D01*
X80972Y-58968D01*
X80972Y-50923D01*
X80907Y-50748D01*
X80888Y-50720D01*
X80823Y-50679D01*
X80502Y-51000D01*
X80823Y-51320D01*
X80888Y-51279D01*
X80965Y-51109D01*
X80972Y-50923D01*
X80972Y-58968D01*
X80952Y-58968D01*
X80952Y-57982D01*
X80887Y-57807D01*
X80868Y-57779D01*
X80820Y-57749D01*
X80820Y-51323D01*
X80500Y-51002D01*
X80497Y-51005D01*
X80497Y-51000D01*
X80176Y-50679D01*
X80111Y-50720D01*
X80034Y-50890D01*
X80027Y-51076D01*
X80092Y-51251D01*
X80111Y-51279D01*
X80176Y-51320D01*
X80497Y-51000D01*
X80497Y-51005D01*
X80179Y-51323D01*
X80220Y-51388D01*
X80390Y-51465D01*
X80576Y-51472D01*
X80751Y-51407D01*
X80779Y-51388D01*
X80820Y-51323D01*
X80820Y-57749D01*
X80803Y-57738D01*
X80800Y-57741D01*
X80800Y-57735D01*
X80760Y-57670D01*
X80590Y-57593D01*
X80403Y-57586D01*
X80228Y-57651D01*
X80200Y-57670D01*
X80159Y-57735D01*
X80480Y-58056D01*
X80800Y-57735D01*
X80800Y-57741D01*
X80483Y-58059D01*
X80803Y-58379D01*
X80868Y-58338D01*
X80946Y-58168D01*
X80952Y-57982D01*
X80952Y-58968D01*
X80800Y-58968D01*
X80800Y-58382D01*
X80480Y-58061D01*
X80477Y-58064D01*
X80477Y-58059D01*
X80157Y-57738D01*
X80091Y-57779D01*
X80014Y-57949D01*
X80007Y-58135D01*
X80073Y-58310D01*
X80091Y-58338D01*
X80157Y-58379D01*
X80477Y-58059D01*
X80477Y-58064D01*
X80159Y-58382D01*
X80200Y-58447D01*
X80370Y-58524D01*
X80557Y-58531D01*
X80732Y-58466D01*
X80760Y-58447D01*
X80800Y-58382D01*
X80800Y-58968D01*
X79031Y-58968D01*
X79031Y-58299D01*
X79050Y-58345D01*
X79193Y-58488D01*
X79379Y-58565D01*
X79580Y-58565D01*
X79766Y-58488D01*
X79909Y-58346D01*
X79986Y-58160D01*
X79986Y-57958D01*
X79909Y-57772D01*
X79767Y-57629D01*
X79681Y-57594D01*
X79681Y-51473D01*
X79786Y-51429D01*
X79929Y-51287D01*
X80006Y-51101D01*
X80006Y-50899D01*
X79929Y-50713D01*
X79787Y-50570D01*
X79692Y-50531D01*
X80412Y-50531D01*
X80248Y-50592D01*
X80220Y-50611D01*
X80179Y-50676D01*
X80500Y-50997D01*
X80820Y-50676D01*
X80779Y-50611D01*
X80609Y-50534D01*
X80536Y-50531D01*
X81307Y-50531D01*
X81213Y-50570D01*
X81070Y-50712D01*
X80993Y-50898D01*
X80993Y-51100D01*
X81070Y-51286D01*
X81212Y-51429D01*
X81398Y-51506D01*
X81600Y-51506D01*
X81786Y-51429D01*
X81929Y-51287D01*
X81996Y-51125D01*
X82062Y-51286D01*
X82204Y-51429D01*
X82310Y-51473D01*
X82310Y-57577D01*
X82185Y-57629D01*
X82043Y-57771D01*
X81976Y-57933D01*
X81909Y-57772D01*
X81767Y-57629D01*
X81581Y-57552D01*
X81380Y-57552D01*
X81193Y-57629D01*
X81051Y-57771D01*
X80973Y-57957D01*
X80973Y-58159D01*
X81050Y-58345D01*
X81193Y-58488D01*
X81379Y-58565D01*
X81580Y-58565D01*
X81766Y-58488D01*
X81909Y-58346D01*
X81976Y-58184D01*
X82042Y-58345D01*
X82185Y-58488D01*
X82371Y-58565D01*
X82572Y-58565D01*
X82758Y-58488D01*
X82901Y-58346D01*
X82974Y-58170D01*
X83046Y-58345D01*
X83189Y-58488D01*
X83375Y-58565D01*
X83576Y-58565D01*
X83762Y-58488D01*
X83905Y-58346D01*
X83978Y-58170D01*
X84050Y-58345D01*
X84193Y-58488D01*
X84379Y-58565D01*
X84580Y-58565D01*
X84766Y-58488D01*
X84909Y-58346D01*
X84986Y-58160D01*
X84986Y-57958D01*
X84909Y-57772D01*
X84767Y-57629D01*
X84681Y-57594D01*
X84681Y-51473D01*
X84786Y-51429D01*
X84929Y-51287D01*
X85006Y-51101D01*
X85006Y-50899D01*
X84929Y-50713D01*
X84787Y-50570D01*
X84692Y-50531D01*
X86126Y-50531D01*
X86120Y-50544D01*
X86120Y-50698D01*
X86179Y-50841D01*
X86288Y-50950D01*
X86430Y-51009D01*
X86584Y-51009D01*
X86727Y-50950D01*
X86836Y-50841D01*
X86895Y-50699D01*
X86895Y-50545D01*
X86889Y-50531D01*
X87148Y-50531D01*
X87144Y-50540D01*
X87139Y-50679D01*
X87188Y-50810D01*
X87201Y-50830D01*
X87254Y-50856D01*
X87489Y-50622D01*
X87483Y-50616D01*
X87486Y-50613D01*
X87492Y-50619D01*
X87497Y-50613D01*
X87500Y-50616D01*
X87494Y-50622D01*
X87729Y-50856D01*
X87782Y-50830D01*
X87839Y-50703D01*
X87844Y-50564D01*
X87832Y-50531D01*
X88468Y-50531D01*
X88468Y-58968D01*
X88468Y-58968D01*
G37*
G54D17*
X88468Y-58968D02*
X88406Y-58968D01*
X88406Y-57248D01*
X88406Y-56698D01*
X88386Y-56650D01*
X88349Y-56613D01*
X88301Y-56593D01*
X88248Y-56593D01*
X87726Y-56593D01*
X87726Y-50859D01*
X87492Y-50624D01*
X87257Y-50859D01*
X87283Y-50912D01*
X87410Y-50969D01*
X87549Y-50974D01*
X87680Y-50925D01*
X87700Y-50912D01*
X87726Y-50859D01*
X87726Y-56593D01*
X87698Y-56593D01*
X87650Y-56613D01*
X87613Y-56650D01*
X87593Y-56698D01*
X87593Y-56751D01*
X87593Y-57301D01*
X87613Y-57349D01*
X87650Y-57386D01*
X87698Y-57406D01*
X87751Y-57406D01*
X88301Y-57406D01*
X88349Y-57386D01*
X88386Y-57349D01*
X88406Y-57301D01*
X88406Y-57248D01*
X88406Y-58968D01*
X87406Y-58968D01*
X87406Y-56919D01*
X87367Y-56825D01*
X87367Y-53281D01*
X87311Y-53146D01*
X87208Y-53042D01*
X87105Y-52999D01*
X87208Y-52957D01*
X87311Y-52854D01*
X87367Y-52719D01*
X87367Y-52572D01*
X87311Y-52437D01*
X87208Y-52334D01*
X87073Y-52278D01*
X86927Y-52277D01*
X86791Y-52333D01*
X86688Y-52437D01*
X86632Y-52572D01*
X86632Y-52718D01*
X86688Y-52853D01*
X86791Y-52957D01*
X86894Y-53000D01*
X86791Y-53042D01*
X86688Y-53145D01*
X86632Y-53280D01*
X86632Y-53427D01*
X86688Y-53562D01*
X86791Y-53665D01*
X86926Y-53721D01*
X87072Y-53722D01*
X87208Y-53666D01*
X87311Y-53562D01*
X87367Y-53427D01*
X87367Y-53281D01*
X87367Y-56825D01*
X87344Y-56770D01*
X87230Y-56655D01*
X87081Y-56593D01*
X86919Y-56593D01*
X86770Y-56655D01*
X86655Y-56769D01*
X86593Y-56918D01*
X86593Y-57080D01*
X86655Y-57229D01*
X86769Y-57344D01*
X86918Y-57406D01*
X87080Y-57406D01*
X87229Y-57344D01*
X87344Y-57230D01*
X87406Y-57081D01*
X87406Y-56919D01*
X87406Y-58968D01*
X87371Y-58968D01*
X87371Y-57939D01*
X87320Y-57801D01*
X87305Y-57780D01*
X87251Y-57751D01*
X87248Y-57754D01*
X87248Y-57748D01*
X87219Y-57694D01*
X87086Y-57633D01*
X86939Y-57628D01*
X86801Y-57679D01*
X86780Y-57694D01*
X86751Y-57748D01*
X87000Y-57997D01*
X87248Y-57748D01*
X87248Y-57754D01*
X87002Y-58000D01*
X87251Y-58248D01*
X87305Y-58219D01*
X87366Y-58086D01*
X87371Y-57939D01*
X87371Y-58968D01*
X87248Y-58968D01*
X87248Y-58251D01*
X87000Y-58002D01*
X86997Y-58005D01*
X86997Y-58000D01*
X86748Y-57751D01*
X86694Y-57780D01*
X86633Y-57913D01*
X86628Y-58060D01*
X86679Y-58198D01*
X86694Y-58219D01*
X86748Y-58248D01*
X86997Y-58000D01*
X86997Y-58005D01*
X86751Y-58251D01*
X86780Y-58305D01*
X86913Y-58366D01*
X87060Y-58371D01*
X87198Y-58320D01*
X87219Y-58305D01*
X87248Y-58251D01*
X87248Y-58968D01*
X80972Y-58968D01*
X80972Y-50923D01*
X80907Y-50748D01*
X80888Y-50720D01*
X80823Y-50679D01*
X80502Y-51000D01*
X80823Y-51320D01*
X80888Y-51279D01*
X80965Y-51109D01*
X80972Y-50923D01*
X80972Y-58968D01*
X80952Y-58968D01*
X80952Y-57982D01*
X80887Y-57807D01*
X80868Y-57779D01*
X80820Y-57749D01*
X80820Y-51323D01*
X80500Y-51002D01*
X80497Y-51005D01*
X80497Y-51000D01*
X80176Y-50679D01*
X80111Y-50720D01*
X80034Y-50890D01*
X80027Y-51076D01*
X80092Y-51251D01*
X80111Y-51279D01*
X80176Y-51320D01*
X80497Y-51000D01*
X80497Y-51005D01*
X80179Y-51323D01*
X80220Y-51388D01*
X80390Y-51465D01*
X80576Y-51472D01*
X80751Y-51407D01*
X80779Y-51388D01*
X80820Y-51323D01*
X80820Y-57749D01*
X80803Y-57738D01*
X80800Y-57741D01*
X80800Y-57735D01*
X80760Y-57670D01*
X80590Y-57593D01*
X80403Y-57586D01*
X80228Y-57651D01*
X80200Y-57670D01*
X80159Y-57735D01*
X80480Y-58056D01*
X80800Y-57735D01*
X80800Y-57741D01*
X80483Y-58059D01*
X80803Y-58379D01*
X80868Y-58338D01*
X80946Y-58168D01*
X80952Y-57982D01*
X80952Y-58968D01*
X80800Y-58968D01*
X80800Y-58382D01*
X80480Y-58061D01*
X80477Y-58064D01*
X80477Y-58059D01*
X80157Y-57738D01*
X80091Y-57779D01*
X80014Y-57949D01*
X80007Y-58135D01*
X80073Y-58310D01*
X80091Y-58338D01*
X80157Y-58379D01*
X80477Y-58059D01*
X80477Y-58064D01*
X80159Y-58382D01*
X80200Y-58447D01*
X80370Y-58524D01*
X80557Y-58531D01*
X80732Y-58466D01*
X80760Y-58447D01*
X80800Y-58382D01*
X80800Y-58968D01*
X79031Y-58968D01*
X79031Y-58299D01*
X79050Y-58345D01*
X79193Y-58488D01*
X79379Y-58565D01*
X79580Y-58565D01*
X79766Y-58488D01*
X79909Y-58346D01*
X79986Y-58160D01*
X79986Y-57958D01*
X79909Y-57772D01*
X79767Y-57629D01*
X79681Y-57594D01*
X79681Y-51473D01*
X79786Y-51429D01*
X79929Y-51287D01*
X80006Y-51101D01*
X80006Y-50899D01*
X79929Y-50713D01*
X79787Y-50570D01*
X79692Y-50531D01*
X80412Y-50531D01*
X80248Y-50592D01*
X80220Y-50611D01*
X80179Y-50676D01*
X80500Y-50997D01*
X80820Y-50676D01*
X80779Y-50611D01*
X80609Y-50534D01*
X80536Y-50531D01*
X81307Y-50531D01*
X81213Y-50570D01*
X81070Y-50712D01*
X80993Y-50898D01*
X80993Y-51100D01*
X81070Y-51286D01*
X81212Y-51429D01*
X81398Y-51506D01*
X81600Y-51506D01*
X81786Y-51429D01*
X81929Y-51287D01*
X81996Y-51125D01*
X82062Y-51286D01*
X82204Y-51429D01*
X82310Y-51473D01*
X82310Y-57577D01*
X82185Y-57629D01*
X82043Y-57771D01*
X81976Y-57933D01*
X81909Y-57772D01*
X81767Y-57629D01*
X81581Y-57552D01*
X81380Y-57552D01*
X81193Y-57629D01*
X81051Y-57771D01*
X80973Y-57957D01*
X80973Y-58159D01*
X81050Y-58345D01*
X81193Y-58488D01*
X81379Y-58565D01*
X81580Y-58565D01*
X81766Y-58488D01*
X81909Y-58346D01*
X81976Y-58184D01*
X82042Y-58345D01*
X82185Y-58488D01*
X82371Y-58565D01*
X82572Y-58565D01*
X82758Y-58488D01*
X82901Y-58346D01*
X82974Y-58170D01*
X83046Y-58345D01*
X83189Y-58488D01*
X83375Y-58565D01*
X83576Y-58565D01*
X83762Y-58488D01*
X83905Y-58346D01*
X83978Y-58170D01*
X84050Y-58345D01*
X84193Y-58488D01*
X84379Y-58565D01*
X84580Y-58565D01*
X84766Y-58488D01*
X84909Y-58346D01*
X84986Y-58160D01*
X84986Y-57958D01*
X84909Y-57772D01*
X84767Y-57629D01*
X84681Y-57594D01*
X84681Y-51473D01*
X84786Y-51429D01*
X84929Y-51287D01*
X85006Y-51101D01*
X85006Y-50899D01*
X84929Y-50713D01*
X84787Y-50570D01*
X84692Y-50531D01*
X86126Y-50531D01*
X86120Y-50544D01*
X86120Y-50698D01*
X86179Y-50841D01*
X86288Y-50950D01*
X86430Y-51009D01*
X86584Y-51009D01*
X86727Y-50950D01*
X86836Y-50841D01*
X86895Y-50699D01*
X86895Y-50545D01*
X86889Y-50531D01*
X87148Y-50531D01*
X87144Y-50540D01*
X87139Y-50679D01*
X87188Y-50810D01*
X87201Y-50830D01*
X87254Y-50856D01*
X87489Y-50622D01*
X87483Y-50616D01*
X87486Y-50613D01*
X87492Y-50619D01*
X87497Y-50613D01*
X87500Y-50616D01*
X87494Y-50622D01*
X87729Y-50856D01*
X87782Y-50830D01*
X87839Y-50703D01*
X87844Y-50564D01*
X87832Y-50531D01*
X88468Y-50531D01*
X88468Y-58968D01*
M02*
