G04 (created by PCBNEW (2013-07-07 BZR 4022)-stable) date 11/5/2013 12:09:03 AM*
%MOIN*%
G04 Gerber Fmt 3.4, Leading zero omitted, Abs format*
%FSLAX34Y34*%
G01*
G70*
G90*
G04 APERTURE LIST*
%ADD10C,0.00590551*%
%ADD11C,0.00984252*%
%ADD12C,0.011811*%
%ADD13C,0.012*%
%ADD14C,0.015*%
%ADD15C,0.008*%
G04 APERTURE END LIST*
G54D10*
G54D11*
X84269Y-54159D02*
X84269Y-53765D01*
X84400Y-54046D01*
X84531Y-53765D01*
X84531Y-54159D01*
X84887Y-54159D02*
X84887Y-53953D01*
X84868Y-53915D01*
X84831Y-53896D01*
X84756Y-53896D01*
X84718Y-53915D01*
X84887Y-54140D02*
X84850Y-54159D01*
X84756Y-54159D01*
X84718Y-54140D01*
X84700Y-54103D01*
X84700Y-54065D01*
X84718Y-54028D01*
X84756Y-54009D01*
X84850Y-54009D01*
X84887Y-53990D01*
X85018Y-53896D02*
X85168Y-53896D01*
X85075Y-53765D02*
X85075Y-54103D01*
X85093Y-54140D01*
X85131Y-54159D01*
X85168Y-54159D01*
X85243Y-53896D02*
X85393Y-53896D01*
X85300Y-53765D02*
X85300Y-54103D01*
X85318Y-54140D01*
X85356Y-54159D01*
X85393Y-54159D01*
X85525Y-54159D02*
X85525Y-53765D01*
X85693Y-54159D02*
X85693Y-53953D01*
X85675Y-53915D01*
X85637Y-53896D01*
X85581Y-53896D01*
X85543Y-53915D01*
X85525Y-53934D01*
X86031Y-54140D02*
X85993Y-54159D01*
X85918Y-54159D01*
X85881Y-54140D01*
X85862Y-54103D01*
X85862Y-53953D01*
X85881Y-53915D01*
X85918Y-53896D01*
X85993Y-53896D01*
X86031Y-53915D01*
X86050Y-53953D01*
X86050Y-53990D01*
X85862Y-54028D01*
X86181Y-53896D02*
X86256Y-54159D01*
X86331Y-53971D01*
X86406Y-54159D01*
X86481Y-53896D01*
X86931Y-54159D02*
X86931Y-53765D01*
X87156Y-54159D01*
X87156Y-53765D01*
X87493Y-54140D02*
X87456Y-54159D01*
X87381Y-54159D01*
X87343Y-54140D01*
X87324Y-54103D01*
X87324Y-53953D01*
X87343Y-53915D01*
X87381Y-53896D01*
X87456Y-53896D01*
X87493Y-53915D01*
X87512Y-53953D01*
X87512Y-53990D01*
X87324Y-54028D01*
X87737Y-54159D02*
X87699Y-54140D01*
X87681Y-54103D01*
X87681Y-53765D01*
X87868Y-54140D02*
X87906Y-54159D01*
X87981Y-54159D01*
X88018Y-54140D01*
X88037Y-54103D01*
X88037Y-54084D01*
X88018Y-54046D01*
X87981Y-54028D01*
X87924Y-54028D01*
X87887Y-54009D01*
X87868Y-53971D01*
X87868Y-53953D01*
X87887Y-53915D01*
X87924Y-53896D01*
X87981Y-53896D01*
X88018Y-53915D01*
X88262Y-54159D02*
X88224Y-54140D01*
X88206Y-54121D01*
X88187Y-54084D01*
X88187Y-53971D01*
X88206Y-53934D01*
X88224Y-53915D01*
X88262Y-53896D01*
X88318Y-53896D01*
X88356Y-53915D01*
X88374Y-53934D01*
X88393Y-53971D01*
X88393Y-54084D01*
X88374Y-54121D01*
X88356Y-54140D01*
X88318Y-54159D01*
X88262Y-54159D01*
X88562Y-53896D02*
X88562Y-54159D01*
X88562Y-53934D02*
X88580Y-53915D01*
X88618Y-53896D01*
X88674Y-53896D01*
X88712Y-53915D01*
X88730Y-53953D01*
X88730Y-54159D01*
X85825Y-54452D02*
X85843Y-54434D01*
X85881Y-54415D01*
X85975Y-54415D01*
X86012Y-54434D01*
X86031Y-54452D01*
X86050Y-54490D01*
X86050Y-54527D01*
X86031Y-54583D01*
X85806Y-54808D01*
X86050Y-54808D01*
X86293Y-54415D02*
X86331Y-54415D01*
X86368Y-54434D01*
X86387Y-54452D01*
X86406Y-54490D01*
X86425Y-54565D01*
X86425Y-54658D01*
X86406Y-54733D01*
X86387Y-54771D01*
X86368Y-54790D01*
X86331Y-54808D01*
X86293Y-54808D01*
X86256Y-54790D01*
X86237Y-54771D01*
X86218Y-54733D01*
X86200Y-54658D01*
X86200Y-54565D01*
X86218Y-54490D01*
X86237Y-54452D01*
X86256Y-54434D01*
X86293Y-54415D01*
X86799Y-54808D02*
X86574Y-54808D01*
X86687Y-54808D02*
X86687Y-54415D01*
X86649Y-54471D01*
X86612Y-54508D01*
X86574Y-54527D01*
X86931Y-54415D02*
X87174Y-54415D01*
X87043Y-54565D01*
X87099Y-54565D01*
X87137Y-54583D01*
X87156Y-54602D01*
X87174Y-54640D01*
X87174Y-54733D01*
X87156Y-54771D01*
X87137Y-54790D01*
X87099Y-54808D01*
X86987Y-54808D01*
X86949Y-54790D01*
X86931Y-54771D01*
G54D12*
X78717Y-58648D02*
X79055Y-58648D01*
X78886Y-59239D02*
X78886Y-58648D01*
X79476Y-59210D02*
X79420Y-59239D01*
X79308Y-59239D01*
X79251Y-59210D01*
X79223Y-59154D01*
X79223Y-58929D01*
X79251Y-58873D01*
X79308Y-58845D01*
X79420Y-58845D01*
X79476Y-58873D01*
X79505Y-58929D01*
X79505Y-58985D01*
X79223Y-59042D01*
X79758Y-59239D02*
X79758Y-58845D01*
X79758Y-58901D02*
X79786Y-58873D01*
X79842Y-58845D01*
X79926Y-58845D01*
X79983Y-58873D01*
X80011Y-58929D01*
X80011Y-59239D01*
X80011Y-58929D02*
X80039Y-58873D01*
X80095Y-58845D01*
X80179Y-58845D01*
X80236Y-58873D01*
X80264Y-58929D01*
X80264Y-59239D01*
X80545Y-58845D02*
X80545Y-59435D01*
X80545Y-58873D02*
X80601Y-58845D01*
X80714Y-58845D01*
X80770Y-58873D01*
X80798Y-58901D01*
X80826Y-58957D01*
X80826Y-59126D01*
X80798Y-59182D01*
X80770Y-59210D01*
X80714Y-59239D01*
X80601Y-59239D01*
X80545Y-59210D01*
X81529Y-59239D02*
X81529Y-58648D01*
X81754Y-58648D01*
X81811Y-58676D01*
X81839Y-58704D01*
X81867Y-58760D01*
X81867Y-58845D01*
X81839Y-58901D01*
X81811Y-58929D01*
X81754Y-58957D01*
X81529Y-58957D01*
X82345Y-59210D02*
X82289Y-59239D01*
X82176Y-59239D01*
X82120Y-59210D01*
X82092Y-59154D01*
X82092Y-58929D01*
X82120Y-58873D01*
X82176Y-58845D01*
X82289Y-58845D01*
X82345Y-58873D01*
X82373Y-58929D01*
X82373Y-58985D01*
X82092Y-59042D01*
X82626Y-58845D02*
X82626Y-59239D01*
X82626Y-58901D02*
X82654Y-58873D01*
X82710Y-58845D01*
X82795Y-58845D01*
X82851Y-58873D01*
X82879Y-58929D01*
X82879Y-59239D01*
X83413Y-59239D02*
X83413Y-58648D01*
X83413Y-59210D02*
X83357Y-59239D01*
X83245Y-59239D01*
X83188Y-59210D01*
X83160Y-59182D01*
X83132Y-59126D01*
X83132Y-58957D01*
X83160Y-58901D01*
X83188Y-58873D01*
X83245Y-58845D01*
X83357Y-58845D01*
X83413Y-58873D01*
X83948Y-59239D02*
X83948Y-58929D01*
X83920Y-58873D01*
X83863Y-58845D01*
X83751Y-58845D01*
X83695Y-58873D01*
X83948Y-59210D02*
X83892Y-59239D01*
X83751Y-59239D01*
X83695Y-59210D01*
X83667Y-59154D01*
X83667Y-59098D01*
X83695Y-59042D01*
X83751Y-59014D01*
X83892Y-59014D01*
X83948Y-58985D01*
X84229Y-58845D02*
X84229Y-59239D01*
X84229Y-58901D02*
X84257Y-58873D01*
X84313Y-58845D01*
X84398Y-58845D01*
X84454Y-58873D01*
X84482Y-58929D01*
X84482Y-59239D01*
X84679Y-58845D02*
X84904Y-58845D01*
X84763Y-58648D02*
X84763Y-59154D01*
X84791Y-59210D01*
X84848Y-59239D01*
X84904Y-59239D01*
X85551Y-59239D02*
X85551Y-58845D01*
X85551Y-58957D02*
X85579Y-58901D01*
X85607Y-58873D01*
X85663Y-58845D01*
X85719Y-58845D01*
X86226Y-59239D02*
X85888Y-59239D01*
X86057Y-59239D02*
X86057Y-58648D01*
X86001Y-58732D01*
X85944Y-58789D01*
X85888Y-58817D01*
G54D13*
X87000Y-58500D02*
X88500Y-57000D01*
X88500Y-57000D02*
X88500Y-56500D01*
X88500Y-56500D02*
X88000Y-56000D01*
X88000Y-56000D02*
X87000Y-56000D01*
X87000Y-56000D02*
X86000Y-57000D01*
X86000Y-57000D02*
X86000Y-58000D01*
X86000Y-58000D02*
X86500Y-58500D01*
X86500Y-58500D02*
X87000Y-58500D01*
G54D14*
X79000Y-51500D02*
X85000Y-51500D01*
X85000Y-50500D02*
X79000Y-50500D01*
X79000Y-50500D02*
X79000Y-51500D01*
X85000Y-51500D02*
X85000Y-50500D01*
G54D10*
X85523Y-47000D02*
X85523Y-51527D01*
X85523Y-51527D02*
X88476Y-51527D01*
X88476Y-51527D02*
X88476Y-47000D01*
X83103Y-55480D02*
G75*
G03X83103Y-55480I-1103J0D01*
G74*
G01*
X78988Y-52409D02*
X84992Y-52409D01*
X84992Y-52409D02*
X84992Y-58590D01*
X84992Y-58590D02*
X78988Y-58590D01*
X78988Y-58590D02*
X78988Y-52409D01*
X85917Y-53393D02*
X85917Y-52409D01*
X85917Y-52409D02*
X88082Y-52409D01*
X88082Y-52409D02*
X88082Y-53393D01*
G54D15*
X86695Y-58761D02*
X86695Y-59085D01*
X86714Y-59123D01*
X86733Y-59142D01*
X86771Y-59161D01*
X86847Y-59161D01*
X86885Y-59142D01*
X86904Y-59123D01*
X86923Y-59085D01*
X86923Y-58761D01*
X87095Y-58800D02*
X87114Y-58780D01*
X87152Y-58761D01*
X87247Y-58761D01*
X87285Y-58780D01*
X87304Y-58800D01*
X87323Y-58838D01*
X87323Y-58876D01*
X87304Y-58933D01*
X87076Y-59161D01*
X87323Y-59161D01*
X86076Y-55261D02*
X86304Y-55261D01*
X86190Y-55661D02*
X86190Y-55261D01*
X86438Y-55661D02*
X86438Y-55261D01*
X86571Y-55547D01*
X86704Y-55261D01*
X86704Y-55661D01*
X86895Y-55661D02*
X86895Y-55261D01*
X87047Y-55261D01*
X87085Y-55280D01*
X87104Y-55300D01*
X87123Y-55338D01*
X87123Y-55395D01*
X87104Y-55433D01*
X87085Y-55452D01*
X87047Y-55471D01*
X86895Y-55471D01*
X87257Y-55261D02*
X87504Y-55261D01*
X87371Y-55414D01*
X87428Y-55414D01*
X87466Y-55433D01*
X87485Y-55452D01*
X87504Y-55490D01*
X87504Y-55585D01*
X87485Y-55623D01*
X87466Y-55642D01*
X87428Y-55661D01*
X87314Y-55661D01*
X87276Y-55642D01*
X87257Y-55623D01*
X87638Y-55261D02*
X87904Y-55661D01*
X87904Y-55261D02*
X87638Y-55661D01*
G54D13*
X81800Y-49642D02*
X81800Y-50071D01*
X81771Y-50157D01*
X81714Y-50214D01*
X81628Y-50242D01*
X81571Y-50242D01*
X82400Y-50242D02*
X82057Y-50242D01*
X82228Y-50242D02*
X82228Y-49642D01*
X82171Y-49728D01*
X82114Y-49785D01*
X82057Y-49814D01*
G54D10*
X85181Y-50951D02*
X85200Y-50894D01*
X85218Y-50876D01*
X85256Y-50857D01*
X85312Y-50857D01*
X85350Y-50876D01*
X85368Y-50894D01*
X85387Y-50932D01*
X85387Y-51082D01*
X84994Y-51082D01*
X84994Y-50951D01*
X85012Y-50913D01*
X85031Y-50894D01*
X85068Y-50876D01*
X85106Y-50876D01*
X85143Y-50894D01*
X85162Y-50913D01*
X85181Y-50951D01*
X85181Y-51082D01*
X84994Y-50744D02*
X84994Y-50519D01*
X85387Y-50632D02*
X84994Y-50632D01*
X85387Y-50182D02*
X85387Y-50407D01*
X85387Y-50294D02*
X84994Y-50294D01*
X85050Y-50332D01*
X85087Y-50369D01*
X85106Y-50407D01*
X88823Y-51625D02*
X88841Y-51569D01*
X88860Y-51550D01*
X88898Y-51532D01*
X88954Y-51532D01*
X88991Y-51550D01*
X89010Y-51569D01*
X89029Y-51607D01*
X89029Y-51757D01*
X88635Y-51757D01*
X88635Y-51625D01*
X88654Y-51588D01*
X88673Y-51569D01*
X88710Y-51550D01*
X88748Y-51550D01*
X88785Y-51569D01*
X88804Y-51588D01*
X88823Y-51625D01*
X88823Y-51757D01*
X88916Y-51382D02*
X88916Y-51194D01*
X89029Y-51419D02*
X88635Y-51288D01*
X89029Y-51157D01*
X88635Y-51082D02*
X88635Y-50857D01*
X89029Y-50969D02*
X88635Y-50969D01*
X88635Y-50782D02*
X88635Y-50557D01*
X89029Y-50669D02*
X88635Y-50669D01*
X88823Y-50426D02*
X88823Y-50294D01*
X89029Y-50238D02*
X89029Y-50426D01*
X88635Y-50426D01*
X88635Y-50238D01*
X89029Y-49844D02*
X88841Y-49976D01*
X89029Y-50069D02*
X88635Y-50069D01*
X88635Y-49919D01*
X88654Y-49882D01*
X88673Y-49863D01*
X88710Y-49844D01*
X88766Y-49844D01*
X88804Y-49863D01*
X88823Y-49882D01*
X88841Y-49919D01*
X88841Y-50069D01*
X88841Y-49601D02*
X89029Y-49601D01*
X88635Y-49732D02*
X88841Y-49601D01*
X88635Y-49470D01*
X81700Y-56899D02*
X81700Y-57218D01*
X81718Y-57255D01*
X81737Y-57274D01*
X81775Y-57293D01*
X81850Y-57293D01*
X81887Y-57274D01*
X81906Y-57255D01*
X81925Y-57218D01*
X81925Y-56899D01*
X82318Y-57293D02*
X82093Y-57293D01*
X82206Y-57293D02*
X82206Y-56899D01*
X82168Y-56955D01*
X82131Y-56993D01*
X82093Y-57011D01*
X80190Y-53858D02*
X80247Y-53877D01*
X80265Y-53896D01*
X80284Y-53933D01*
X80284Y-53989D01*
X80265Y-54027D01*
X80247Y-54046D01*
X80209Y-54064D01*
X80059Y-54064D01*
X80059Y-53671D01*
X80190Y-53671D01*
X80228Y-53689D01*
X80247Y-53708D01*
X80265Y-53746D01*
X80265Y-53783D01*
X80247Y-53821D01*
X80228Y-53839D01*
X80190Y-53858D01*
X80059Y-53858D01*
X80640Y-54064D02*
X80453Y-54064D01*
X80453Y-53671D01*
X80772Y-54064D02*
X80772Y-53671D01*
X80959Y-54064D02*
X80959Y-53671D01*
X81184Y-54064D01*
X81184Y-53671D01*
X81371Y-54064D02*
X81371Y-53671D01*
X81596Y-54064D02*
X81428Y-53839D01*
X81596Y-53671D02*
X81371Y-53896D01*
X81765Y-54064D02*
X81765Y-53671D01*
X81896Y-53952D01*
X82028Y-53671D01*
X82028Y-54064D01*
X82496Y-53652D02*
X82159Y-54158D01*
X82628Y-54064D02*
X82628Y-53671D01*
X82759Y-53952D01*
X82890Y-53671D01*
X82890Y-54064D01*
X83077Y-54064D02*
X83077Y-53671D01*
X83265Y-54064D02*
X83265Y-53671D01*
X83490Y-54064D01*
X83490Y-53671D01*
X83677Y-54064D02*
X83677Y-53671D01*
X83809Y-53952D01*
X83940Y-53671D01*
X83940Y-54064D01*
X86475Y-52254D02*
X86531Y-52273D01*
X86625Y-52273D01*
X86662Y-52254D01*
X86681Y-52236D01*
X86700Y-52198D01*
X86700Y-52161D01*
X86681Y-52123D01*
X86662Y-52104D01*
X86625Y-52086D01*
X86550Y-52067D01*
X86512Y-52048D01*
X86493Y-52029D01*
X86475Y-51992D01*
X86475Y-51954D01*
X86493Y-51917D01*
X86512Y-51898D01*
X86550Y-51879D01*
X86643Y-51879D01*
X86700Y-51898D01*
X86831Y-51879D02*
X86925Y-52273D01*
X87000Y-51992D01*
X87074Y-52273D01*
X87168Y-51879D01*
X87524Y-52273D02*
X87299Y-52273D01*
X87412Y-52273D02*
X87412Y-51879D01*
X87374Y-51936D01*
X87337Y-51973D01*
X87299Y-51992D01*
M02*
